<svg id="directions_car-24px" xmlns="http://www.w3.org/2000/svg" width="38.935" height="38.72" viewBox="0 0 38.935 38.72">
  <path id="Caminho_4" data-name="Caminho 4" d="M0,0H38.935V38.72H0Z" fill="none"/>
  <path id="Caminho_5" data-name="Caminho 5" d="M28.591,6.624A2.4,2.4,0,0,0,26.309,5H8.626A2.417,2.417,0,0,0,6.344,6.624L3,16.253v12.86A1.612,1.612,0,0,0,4.608,30.72H6.215a1.612,1.612,0,0,0,1.608-1.608V27.505h19.29v1.608A1.612,1.612,0,0,0,28.72,30.72h1.608a1.612,1.612,0,0,0,1.608-1.608V16.253ZM8.626,22.683a2.411,2.411,0,1,1,2.411-2.411A2.408,2.408,0,0,1,8.626,22.683Zm17.683,0a2.411,2.411,0,1,1,2.411-2.411A2.408,2.408,0,0,1,26.309,22.683ZM6.215,14.645,8.626,7.411H26.309l2.411,7.234Z" transform="translate(1.823 3.038)" fill="#fcf5f5"/>
</svg>
